<?xml version="1.0" encoding="UTF-8"?>
<svg width="112px" height="40px" viewBox="0 0 112 40" version="1.1" xmlns="http://www.w3.org/2000/svg" xmlns:xlink="http://www.w3.org/1999/xlink">
    <!-- Generator: sketchtool 42 (36781) - http://www.bohemiancoding.com/sketch -->
    <title>0E9276FF-2F1A-44E8-92A9-B1F5F75DA24E</title>
    <desc>Created with sketchtool.</desc>
    <defs></defs>
    <g id="Symbols" stroke="none" stroke-width="1" fill="none" fill-rule="evenodd">
        <g id="menu" transform="translate(-40.000000, -15.000000)" fill="#315EFB">
            <g id="logo">
                <g transform="translate(40.000000, 15.000000)">
                    <path d="M107.710643,8.23829787 L98.9730545,32.0680851 L102.547523,32.0680851 L111.285111,8.23829787 L107.710643,8.23829787 M94.2854196,19.9148936 C94.2854196,21.9801418 93.0940575,23.7276596 90.7907574,23.7276596 C88.4874573,23.7276596 87.2166711,21.8212766 87.2166711,19.9148936 C87.2166711,18.0085106 88.4874573,16.1021277 90.7907574,16.1021277 C93.0146334,16.1021277 94.2854196,17.7702128 94.2854196,19.9148936 M91.1878781,13.4014184 C88.9640022,13.4014184 87.6932159,14.5929078 87.2960952,15.0695035 L87.2960952,13.7191489 L83.9602813,13.7191489 L83.9602813,32.0680851 L87.3755193,32.0680851 L87.3755193,24.9191489 C87.77264,25.3163121 89.1228504,26.4283688 91.1878781,26.4283688 C94.3648438,26.4283688 97.303537,24.0453901 97.303537,19.9148936 C97.3829611,15.5460993 94.1265713,13.4014184 91.1878781,13.4014184 M72.919149,18.564539 C72.9985816,17.6907801 73.8723405,16.022695 75.9375887,16.022695 C78.2411349,16.022695 78.638298,17.8496454 78.7177306,18.564539 L72.919149,18.564539 M76.0170214,13.4014184 C72.1248227,13.4014184 69.5035461,16.2609929 69.5035461,19.9148936 C69.5035461,23.5687943 72.1248227,26.4283688 76.096454,26.4283688 C80.0680852,26.4283688 81.7361704,23.648227 81.7361704,23.648227 L79.1943264,21.9801418 C79.1943264,21.9801418 78.3205675,23.7276596 76.096454,23.7276596 C73.7929079,23.7276596 72.8397164,21.741844 72.8397164,21.0269504 L81.9744682,21.0269504 C81.9744682,21.0269504 82.0539009,20.470922 82.0539009,20.3120567 L82.0539009,19.9148936 C82.0539009,16.1815603 79.8297874,13.4014184 76.0170214,13.4014184 M65.6113451,26.1106383 L69.2652458,26.1106383 L64.7375862,13.7191489 L61.1631181,13.7191489 L56.5560259,26.1106383 L60.2893593,26.1106383 L62.9106359,18.2468085 L62.9900685,18.2468085 L65.6113451,26.1106383 M52.9815603,20.2326241 C52.9815603,21.6624113 52.187234,23.7276596 49.8836879,23.7276596 C47.5801418,23.7276596 46.6269504,21.9007092 46.6269504,20.1531915 C46.6269504,18.4056738 47.5801418,16.8170213 49.8836879,16.8170213 C52.187234,16.8170213 52.9815603,18.8028369 52.9815603,20.2326241 M50.2014184,13.7191489 C48.5333333,13.7191489 47.341844,14.5134752 47.0241135,14.751773 C47.1035461,14.3546099 47.5007092,11.0184397 51.9489362,11.0184397 L54.729078,11.0184397 L55.7617021,8.23829787 L52.0283688,8.23829787 C47.1035461,8.23829787 43.2907801,10.541844 43.2907801,18.564539 C43.2907801,22.9333333 45.1971631,26.5078014 49.8042553,26.5078014 C54.1730496,26.5078014 56.3971631,23.3304965 56.3971631,20.1531915 C56.3971631,15.5460993 52.9815603,13.7191489 50.2014184,13.7191489 M33.9177305,18.9617021 L29.6283688,13.7985816 L29.5489362,13.7191489 L26.6099291,13.7191489 L26.6099291,26.1106383 L30.0255319,26.1106383 L30.0255319,18.8822695 L33.3617021,23.0921986 L33.4411348,23.2510638 L34.3148936,23.2510638 L37.7304965,18.8822695 L37.7304965,26.1106383 L41.1460993,26.1106383 L41.1460993,13.7191489 L38.2070922,13.7191489 L33.9177305,18.9617021 M20.5730472,20.9475177 C20.5730472,22.6156028 19.6198557,23.8070922 17.7929054,23.8070922 C16.0453876,23.8070922 15.8865224,22.7744681 15.8865224,22.377305 C15.8865224,21.4241135 16.6808486,20.8680851 18.6666642,20.6297872 C19.2226926,20.5503546 19.778721,20.5503546 20.3347493,20.5503546 L20.5730472,20.5503546 L20.5730472,20.9475177 M23.7503522,23.3304965 L23.7503522,19.5971631 L23.7503522,18.8822695 C23.5914869,14.9900709 21.9234018,13.4014184 18.4283664,13.4014184 C16.0453876,13.4014184 14.4567352,14.3546099 13.9007068,14.751773 L14.8538983,17.293617 C14.8538983,17.293617 16.2836855,16.022695 18.1106359,16.022695 C20.7319125,16.022695 20.414182,18.1673759 20.414182,18.1673759 C19.5404231,18.1673759 12.4709196,17.7702128 12.4709196,22.377305 C12.4709196,24.9191489 14.6156004,26.3489362 16.9191465,26.3489362 C18.9843947,26.3489362 20.1758841,25.3163121 20.4936146,24.9191489 C20.4936146,24.9985816 20.5730472,26.1106383 20.5730472,26.1106383 L23.7503522,26.1106383 C23.9092174,26.1106383 23.7503522,25.0780142 23.7503522,23.3304965 M8.5787234,14.0368794 C8.5787234,16.1021277 6.5929078,16.8170213 5.24255319,16.8170213 L3.49503546,16.8170213 L3.49503546,11.177305 L5.24255319,11.177305 C6.5929078,11.2567376 8.5787234,11.9716312 8.5787234,14.0368794 M5.56028369,8.23829787 L0,8.23829787 L0,26.1900709 L3.57446809,26.1900709 L3.57446809,19.835461 L5.48085106,19.835461 C9.13475177,19.835461 12.1531915,17.929078 12.1531915,14.0368794 C12.1531915,10.2241135 9.13475177,8.23829787 5.56028369,8.23829787" id="rambler"></path>
                </g>
            </g>
        </g>
    </g>
</svg>